<?xml version="1.0" encoding="UTF-8"?>
<svg xmlns="http://www.w3.org/2000/svg" xmlns:xlink="http://www.w3.org/1999/xlink" viewBox="0 0 880 880">
  <defs>
    <style>      .cls-1 {        fill: none;      }      .cls-2 {        isolation: isolate;      }      .cls-3 {        clip-path: url("#clip-path");      }      .cls-4 {        clip-path: url("#clip-path-2");      }      .cls-5 {        fill: #fdea8b;      }      .cls-6 {        opacity: 0.82;        mix-blend-mode: multiply;        fill: url("#linear-gradient");      }      .cls-7 {        fill: #fff;      }      .cls-8 {        fill: #014e7f;      }    </style>
    <clipPath id="clip-path">
      <rect class="cls-1" y="1755.55" width="880" height="880"/>
    </clipPath>
    <clipPath id="clip-path-2">
      <rect class="cls-1" x="-0.13" width="880" height="880"/>
    </clipPath>
    <linearGradient id="linear-gradient" x1="29.5" y1="207.51" x2="664.71" y2="207.51" gradientTransform="translate(5.47 12.09)" gradientUnits="userSpaceOnUse">
      <stop offset="0" stop-color="#fff"/>
      <stop offset="0.19" stop-color="#fffefc"/>
      <stop offset="0.32" stop-color="#fffcf4"/>
      <stop offset="0.42" stop-color="#fff9e5"/>
      <stop offset="0.51" stop-color="#fff4d0"/>
      <stop offset="0.59" stop-color="#ffedb5"/>
      <stop offset="0.67" stop-color="#ffe594"/>
      <stop offset="0.75" stop-color="#ffdc6d"/>
      <stop offset="0.82" stop-color="#ffd141"/>
      <stop offset="0.84" stop-color="#ffcd31"/>
      <stop offset="1" stop-color="#ffd459"/>
    </linearGradient>
  </defs>
  <title>iiLAB -U1-concepts-04-DEVICE SEIZED</title>
  <g class="cls-2">
    <g id="Layer_2" data-name="Layer 2">
      <g class="cls-4" transform="translate(225.17 139.33)">
        <path        class="cls-7"        d="M338.88,495.3a22.86,22.86,0,0,1-21.48,23.94L85.7,532.13A22.6,22.6,0,0,1,61.91,510.7L41.72,99.89A23,23,0,0,1,63.28,75.94l157.86-8.78a220.94,220.94,0,0,1,45,3.06s15.74,3,26.91,15.14c19.79,21.44,21.06,26.27,21.06,26.27a267.71,267.71,0,0,1,7,44.65Z"/>
        <path        class="cls-8"        d="M101.34,250.6c56-7.55,112.55-11.57,168.92-15.33,7.78-.52,15.64-0.68,23.39-1.57,1.7-.19,3.35-2,2.16-3.76s-3.45-1.2-5.26-1.12c-3.21.14-3.22,5.14,0,5,1,0,2.06-.11,3.1-0.12l-2.16-1.24h0l2.16-3.76c-16.13,1.84-32.64,2.17-48.83,3.34-30.81,2.24-61.6,4.73-92.35,7.76-17.52,1.72-35,3.63-52.46,6-3.17.43-1.82,5.25,1.33,4.82h0Z"/>
        <path        class="cls-8"        d="M103.47,289c56-7.55,112.55-11.57,168.92-15.33,7.78-.52,15.64-0.68,23.39-1.57,1.7-.19,3.35-2,2.16-3.76s-3.45-1.2-5.26-1.12c-3.21.14-3.22,5.14,0,5,1,0,2.06-.11,3.1-0.12l-2.16-1.24h0l2.16-3.76c-16.13,1.84-32.64,2.17-48.83,3.34-30.81,2.24-61.6,4.73-92.35,7.76-17.52,1.72-35,3.63-52.46,6-3.17.43-1.82,5.25,1.33,4.82h0Z"/>
        <path        class="cls-8"        d="M105.61,327.37c56-7.55,112.55-11.57,168.92-15.33,7.78-.52,15.64-0.68,23.39-1.57,1.7-.19,3.35-2,2.16-3.76s-3.45-1.2-5.26-1.12c-3.21.14-3.22,5.14,0,5,1,0,2.06-.11,3.1-0.12l-2.16-1.24h0l2.16-3.76c-16.13,1.84-32.64,2.17-48.83,3.34-30.81,2.24-61.6,4.73-92.35,7.76-17.52,1.72-35,3.63-52.46,6-3.17.43-1.82,5.25,1.33,4.82h0Z"/>
        <path        class="cls-8"        d="M107.74,365.75c56-7.55,112.55-11.57,168.92-15.33,7.78-.52,15.64-0.68,23.39-1.57,1.7-.19,3.35-2,2.16-3.76s-3.45-1.2-5.26-1.12c-3.21.14-3.22,5.14,0,5,1,0,2.06-.11,3.1-0.12l-2.16-1.24h0l2.16-3.76c-16.13,1.84-32.64,2.17-48.83,3.34-30.81,2.24-61.6,4.73-92.35,7.76-17.52,1.72-35,3.63-52.46,6-3.17.43-1.82,5.25,1.33,4.82h0Z"/>
        <path        class="cls-8"        d="M109.88,404.13c56-7.55,112.55-11.57,168.92-15.33,7.78-.52,15.64-0.68,23.39-1.57,1.7-.19,3.35-2,2.16-3.76s-3.45-1.2-5.26-1.12c-3.21.14-3.22,5.14,0,5,1,0,2.06-.11,3.1-0.12L300,386h0l2.16-3.76c-16.13,1.84-32.64,2.17-48.83,3.34-30.81,2.24-61.6,4.73-92.35,7.76-17.52,1.72-35,3.63-52.46,6-3.17.43-1.82,5.25,1.33,4.82h0Z"/>
        <path        class="cls-8"        d="M112,442.51c56-7.55,112.55-11.57,168.92-15.33,7.78-.52,15.64-0.68,23.39-1.57,1.7-.19,3.35-2,2.16-3.76s-3.45-1.2-5.26-1.12c-3.21.14-3.22,5.14,0,5,1,0,2.06-.11,3.1-0.12l-2.16-1.24h0l2.16-3.76c-16.13,1.84-32.64,2.17-48.83,3.34-30.81,2.24-61.6,4.73-92.35,7.76-17.52,1.72-35,3.63-52.46,6-3.17.43-1.82,5.25,1.33,4.82h0Z"/>
        <path        class="cls-8"        d="M348.88,483.49a20.65,20.65,0,0,1-19,21.44c-1.2.1-2.41,0.13-3.62,0.2l-22.18,1.23-81.55,4.53-86,4.78-28.16,1.57c-4.74.26-10.13,1.14-14.86,0.3-18.15-3.22-16.7-21.61-17.38-35.4L73.23,424.1,64.6,248.37l-7-142.7c-0.64-13.09-4-29.74,10.45-37,6-3,14.18-2.44,20.76-2.81l35.77-2,86.25-4.79c7.34-.41,14.68-0.83,22-1.22,15.17-.81,32.08-0.52,46.85,3.33C290.33,64,299,70.07,306.35,78.14,312,84.4,318,90.75,322.61,97.85a19.65,19.65,0,0,1,1.65,2.82c-0.32-.73-0.15-0.36-0.09-0.18a56.94,56.94,0,0,1,1.82,7.8,245.11,245.11,0,0,1,5,35.57c0.61,10.1,1.07,20.22,1.6,30.32l8.61,163.66L348.49,476l0.39,7.45c0.17,3.2,5.17,3.22,5,0l-5.63-107-9.39-178.64-2.6-49.39q-0.65-12.43-2.48-24.74c-1.21-8.14-1.86-17.8-5.15-25.42-1.56-3.61-4.45-6.85-6.87-9.88-11.63-14.59-24.52-29-43.69-32.61A195.29,195.29,0,0,0,231.6,53l-69.93,3.89L83.12,61.22c-9.47.53-18.43,1.31-25.22,9.18-5.19,6-6.4,13.28-6,20.87l5.8,118.08,9.07,184.5c1.71,34.81,2.84,69.71,5.14,104.49,0.93,14.11,12,24.87,26.34,24.46,4.13-.12,8.27-0.46,12.4-0.69L185,518c48-2.67,96-4.92,144-8,14.27-.92,25.25-11.9,24.93-26.49C353.81,480.28,348.81,480.27,348.88,483.49Z"/>
        <path class="cls-8" d="M266.6,59.81L266,112a1.79,1.79,0,0,0,1.78,1.78l56.82-4.06c2.27-.16,2.29-3.73,0-3.56l-56.82,4.06,1.78,1.78,0.56-52.18c0-2.29-3.54-2.29-3.56,0h0Z"/>
        <path        class="cls-8"        d="M180.18,202c-3.8-1.34-8,1.21-9.23,4.94s1.12,7.35,4.62,8.69a7.76,7.76,0,0,0,9.5-3,9.2,9.2,0,0,0-1-10.64c-1.56-1.88-4.24.82-2.68,2.68,2.56,3.08.48,8.72-3.94,7.63-1.72-.42-3.4-1.89-3-3.83a3.68,3.68,0,0,1,4.7-2.77c2.31,0.81,3.3-2.85,1-3.66h0Z"/>
        <path        class="cls-8"        d="M162.73,107.74a98.1,98.1,0,0,1,18.63-2,94.8,94.8,0,0,1,9.63.43c2.57,0.25,6.44.17,8.73,1.6,8.41,5.25-9.81,23.3-13.56,28-11.94,14.82-16.86,33.39-13,52.13l1.33-2.34c-7.11,2.34-6.81-18.51-6.26-21.9a58.57,58.57,0,0,1,7.12-19.23C182.06,132.6,191,122.25,197,110a1.92,1.92,0,0,0-1.64-2.86,105.36,105.36,0,0,0-55,12.94l2.6,0.68a6.67,6.67,0,0,1,3.42-8.7c2.18-1.1.26-4.37-1.92-3.28-5.29,2.66-7.08,8.59-4.78,13.89a1.92,1.92,0,0,0,2.6.68,101.45,101.45,0,0,1,53-12.43l-1.64-2.86c-7.83,16.16-21.23,29.26-27,46.44-2.56,7.58-3.68,15.93-1.76,23.8,1.16,4.77,4.27,13,10.62,10.92a2,2,0,0,0,1.33-2.34,57.31,57.31,0,0,1,4.43-36.79c5-10.28,13.79-17.73,19.95-27.23,4.36-6.73,8.36-16.5-2.1-19.27-11.86-3.14-25.55-1.87-37.41.48-2.39.48-1.38,4.14,1,3.66h0Z"/>
      </g>
    </g>
  </g>
</svg>
